:SAMPLES-PER-SECOND 30
:FULLY-SPECIFIED
:DEGREES
465
root  17.7169 21.3327 -1.26832 -42.3489 86.4803 -78.8766
RightUpLeg  -20.5626 1.24094 2.65913
RightLeg  88.8697 0.550852 -16.2389
RightFoot  -5.63954 -0.743599 14.0977
RightToes  -1.33073e-015 0 -3.6325e-017
Spine  54.4667 -3.49032 9.05514
Spine1  -10.4756 2.66085 -17.4726
HEad  -52.5147 -1.93155 4.17056
LeftShoulder1  6.54247 -20.5687 -20.6795
LeftArm  1.35664 -59.9006 -44.7558
LeftForeArm  66.2269 -2.47924 -8.62961
LeftHand  -0.244104 0.0205437 5.32207
RightShoulder  3.7569 13.6622 15.0866
RightArm  -37.872 65.0669 23.7718
RightForeArm  9.09838 3.39074 1.12799
RightHand  -23.3103 37.0503 -58.1406
LeftUpLeg  -60.8867 5.57502 4.90428
LeftLeg  124.454 -2.87124 3.39569
LeftFoot  -5.45749 0.104948 -1.44939
LeftToes  -7.82198e-011 2.46994e-011 -7.94165e-012
466
root  18.3888 20.941 -1.30184 -39.2625 84.1685 -74.0862
RightUpLeg  -16.146 1.81771 4.16095
RightLeg  86.7543 -0.121325 -18.3432
RightFoot  -6.59593 -0.633971 14.1479
RightToes  -1.33073e-015 0 -3.6325e-017
Spine  54.1475 -3.13233 9.53609
Spine1  -9.55953 3.32332 -16.8315
HEad  -51.9949 -0.78233 3.61125
LeftShoulder1  7.38001 -20.6034 -24.3083
LeftArm  -0.0125282 -57.5019 -40.801
LeftForeArm  67.1482 -3.2673 -8.88485
LeftHand  -0.244104 0.0205437 5.32207
RightShoulder  3.91894 14.4918 14.9589
RightArm  -34.5288 65.2507 28.2881
RightForeArm  10.1493 1.79374 0.946035
RightHand  -25.0863 38.3731 -60.2369
LeftUpLeg  -61.3219 6.87945 6.23722
LeftLeg  124.867 -3.62296 4.34204
LeftFoot  1.24353 0.0767296 -0.788209
LeftToes  -7.82198e-011 2.46994e-011 -7.94165e-012
467
root  19.1549 20.4789 -1.39509 -36.7974 82.0312 -70.7448
RightUpLeg  -12.3106 2.31674 5.15251
RightLeg  84.3718 -1.05901 -20.3195
RightFoot  -7.12789 -0.568772 14.0677
RightToes  -1.33073e-015 0 -3.6325e-017
Spine  52.8857 -3.08533 10.5348
Spine1  -8.53951 3.98716 -16.9704
HEad  -51.734 0.0607542 3.29146
LeftShoulder1  8.25379 -20.7578 -27.841
LeftArm  -0.762591 -54.9744 -37.444
LeftForeArm  68.1275 -3.48213 -9.20426
LeftHand  -0.244104 0.0205437 5.32207
RightShoulder  4.22147 15.3502 15.6187
RightArm  -30.9575 64.7718 32.89
RightForeArm  11.832 0.790312 0.845548
RightHand  -27.2912 39.8237 -62.8735
LeftUpLeg  -59.976 7.4938 7.41024
LeftLeg  124.942 -3.78135 4.53766
LeftFoot  7.91108 -0.0235709 -0.133789
LeftToes  -7.82198e-011 2.46994e-011 -7.94165e-012
468
root  20.0654 20.1758 -1.50502 -29.6749 81.0948 -63.8977
RightUpLeg  -9.60834 2.68136 4.55155
RightLeg  81.3706 -2.37061 -21.7023
RightFoot  -7.09053 -0.546585 13.366
RightToes  -1.33073e-015 0 -3.6325e-017
Spine  51.1561 -2.87779 10.5667
Spine1  -7.58295 4.30217 -17.1937
HEad  -51.6179 0.850943 2.72412
LeftShoulder1  9.11418 -21.0761 -30.9507
LeftArm  -1.06154 -51.8746 -35.0534
LeftForeArm  69.3583 -3.39535 -9.48737
LeftHand  -0.244104 0.0205437 5.32207
RightShoulder  4.69015 15.9662 17.463
RightArm  -26.601 63.7947 36.6183
RightForeArm  13.5352 0.35222 1.32308
RightHand  -29.0394 40.8687 -64.9294
LeftUpLeg  -57.348 7.18958 6.81026
LeftLeg  123.965 -3.39515 4.17848
LeftFoot  10.3428 -0.0900704 0.147185
LeftToes  -7.82198e-011 2.46994e-011 -7.94165e-012
469
root  21.1093 20.1183 -1.56722 -15.4556 82.032 -51.0857
RightUpLeg  -8.28385 2.02776 1.94357
RightLeg  77.849 -3.99693 -22.5568
RightFoot  -6.434 -0.586945 12.6207
RightToes  -1.33073e-015 0 -3.6325e-017
Spine  49.6602 -2.27227 8.63808
Spine1  -7.85954 3.63289 -15.7439
HEad  -51.1749 1.67242 1.35771
LeftShoulder1  9.97838 -21.5695 -33.6603
LeftArm  -0.918668 -47.5315 -33.6666
LeftForeArm  69.9933 -3.71978 -9.70773
LeftHand  -0.244104 0.0205437 5.32207
RightShoulder  5.21348 16.4054 19.7217
RightArm  -21.4609 62.5602 39.587
RightForeArm  15.3562 -0.696044 2.20993
RightHand  -30.5466 41.7138 -66.6641
LeftUpLeg  -54.9363 6.40373 3.72246
LeftLeg  121.436 -3.47555 4.74732
LeftFoot  9.32837 0.00121031 -0.328843
LeftToes  -7.82198e-011 2.46994e-011 -7.94165e-012
